<svg width="14" height="14" viewBox="0 0 14 14" fill="none" xmlns="http://www.w3.org/2000/svg">
<path d="M7.43041 0.183776C7.15817 0.0539757 6.8419 0.0539757 6.56966 0.183776C6.33432 0.295986 6.20456 0.490811 6.13912 0.597692C6.07148 0.708185 6.00203 0.848937 5.93435 0.986129L4.4972 3.89765L1.28249 4.36753C1.13117 4.38961 0.975894 4.41228 0.849951 4.44256C0.72811 4.47186 0.502837 4.53523 0.323563 4.72445C0.116169 4.94337 0.0186343 5.24418 0.0581146 5.54313C0.0922418 5.80155 0.237471 5.98505 0.318938 6.08027C0.40315 6.1787 0.515583 6.28817 0.625159 6.39485L2.95036 8.65958L2.40171 11.8584C2.37581 12.0093 2.34924 12.164 2.33901 12.2932C2.32912 12.4181 2.31956 12.6521 2.44402 12.8812C2.58799 13.1463 2.84391 13.3322 3.14049 13.3871C3.3969 13.4347 3.61642 13.3533 3.73218 13.3052C3.85188 13.2556 3.99082 13.1825 4.12626 13.1112L7.00004 11.5999L9.87383 13.1112C10.0093 13.1825 10.1482 13.2556 10.2679 13.3052C10.3837 13.3533 10.6032 13.4347 10.8596 13.3871C11.1562 13.3322 11.4121 13.1463 11.556 12.8812C11.6805 12.6521 11.671 12.4181 11.6611 12.2932C11.6508 12.164 11.6243 12.0093 11.5984 11.8585L11.0497 8.65958L13.3749 6.39482C13.4845 6.28815 13.5969 6.17869 13.6811 6.08027C13.7626 5.98505 13.9078 5.80155 13.942 5.54313C13.9814 5.24418 13.8839 4.94337 13.6765 4.72445C13.4972 4.53523 13.272 4.47186 13.1501 4.44256C13.0242 4.41228 12.8689 4.38961 12.7176 4.36753L9.50288 3.89765L8.06575 0.986179C7.99806 0.848978 7.9286 0.708193 7.86095 0.597692C7.79551 0.490811 7.66576 0.295986 7.43041 0.183776Z" fill="#7ABC26"/>
</svg>
