<svg width="14" height="14" viewBox="0 0 14 14" fill="none" xmlns="http://www.w3.org/2000/svg">
<path d="M7.43035 0.183776C7.15811 0.0539757 6.84184 0.0539757 6.5696 0.183776C6.33426 0.295986 6.2045 0.490811 6.13906 0.597692C6.07142 0.708185 6.00197 0.848937 5.93429 0.986129L4.49713 3.89765L1.28243 4.36753C1.13111 4.38961 0.975833 4.41228 0.84989 4.44256C0.728049 4.47186 0.502776 4.53523 0.323502 4.72446C0.116108 4.94337 0.0185732 5.24418 0.0580535 5.54313C0.0921808 5.80155 0.23741 5.98505 0.318877 6.08027C0.403089 6.1787 0.515522 6.28816 0.625098 6.39485L2.95029 8.65958L2.40165 11.8584C2.37575 12.0093 2.34918 12.164 2.33895 12.2932C2.32906 12.4181 2.3195 12.6521 2.44396 12.8812C2.58793 13.1463 2.84385 13.3322 3.14043 13.3871C3.39684 13.4347 3.61636 13.3533 3.73211 13.3052C3.85181 13.2556 3.99076 13.1825 4.1262 13.1112L6.99997 11.5999L9.87376 13.1112C10.0092 13.1825 10.1481 13.2556 10.2678 13.3052C10.3836 13.3533 10.6031 13.4347 10.8595 13.3871C11.1561 13.3322 11.412 13.1463 11.556 12.8812C11.6805 12.6521 11.6709 12.4181 11.661 12.2932C11.6508 12.164 11.6242 12.0093 11.5983 11.8585L11.0497 8.65958L13.3749 6.39482C13.4844 6.28815 13.5969 6.17869 13.6811 6.08027C13.7625 5.98505 13.9078 5.80155 13.9419 5.54313C13.9814 5.24418 13.8838 4.94337 13.6764 4.72446C13.4972 4.53523 13.2719 4.47186 13.1501 4.44256C13.0241 4.41228 12.8688 4.38961 12.7175 4.36752L9.50282 3.89765L8.06569 0.986179C7.998 0.848978 7.92854 0.708193 7.86089 0.597692C7.79545 0.490811 7.66569 0.295986 7.43035 0.183776Z" fill="#FEC12A"/>
</svg>
