<svg width="28" height="28" viewBox="0 0 28 28" fill="none" xmlns="http://www.w3.org/2000/svg">
<path d="M26.32 14.2915C26.32 13.3815 26.2383 12.5065 26.0867 11.6665H14V16.6365H20.9067C20.6033 18.2348 19.6933 19.5882 18.3283 20.4982V23.7298H22.4933C24.92 21.4898 26.32 18.1998 26.32 14.2915Z" fill="#4285F4"/>
<path d="M14.0001 26.8335C17.4651 26.8335 20.3701 25.6902 22.4935 23.7302L18.3285 20.4985C17.1851 21.2685 15.7268 21.7352 14.0001 21.7352C10.6635 21.7352 7.82846 19.4835 6.81346 16.4502H2.54346V19.7635C4.65512 23.9519 8.98346 26.8335 14.0001 26.8335Z" fill="#34A853"/>
<path d="M6.81329 16.438C6.55663 15.668 6.40496 14.8514 6.40496 13.9997C6.40496 13.148 6.55663 12.3314 6.81329 11.5614V8.24805H2.54329C1.66829 9.97471 1.16663 11.923 1.16663 13.9997C1.16663 16.0764 1.66829 18.0247 2.54329 19.7514L5.86829 17.1614L6.81329 16.438Z" fill="#FBBC05"/>
<path d="M14.0001 6.2765C15.8901 6.2765 17.5701 6.92984 18.9118 8.18984L22.5868 4.51484C20.3585 2.43817 17.4651 1.1665 14.0001 1.1665C8.98346 1.1665 4.65512 4.04817 2.54346 8.24817L6.81346 11.5615C7.82846 8.52817 10.6635 6.2765 14.0001 6.2765Z" fill="#EA4335"/>
</svg>
