<svg width="28" height="28" viewBox="0 0 28 28" fill="none" xmlns="http://www.w3.org/2000/svg">
<mask id="mask0_2307_18599" style="mask-type:luminance" maskUnits="userSpaceOnUse" x="0" y="0" width="28" height="28">
<path fill-rule="evenodd" clip-rule="evenodd" d="M6.95885 0.0127268L8.15684 0L20.6178 0.00509135C20.807 0.00678832 20.9249 0.00933282 21.042 0.0127268C21.6597 0.028848 22.2833 0.0644848 22.8941 0.173939C23.5061 0.27719 24.0993 0.470478 24.6546 0.747516C25.2078 1.02582 25.7152 1.38897 26.1538 1.82424C26.5926 2.25744 26.96 2.75747 27.2423 3.3057C27.5308 3.86315 27.7115 4.43418 27.8227 5.04679C27.933 5.65091 27.9695 6.26691 27.9856 6.87782C27.9941 7.15782 27.9975 7.43782 27.9983 7.71867L28 8.21842V19.2801C28 19.6127 28 19.9462 27.9983 20.2796C27.9966 20.5596 27.9941 20.8396 27.9856 21.1196C27.9686 21.7305 27.933 22.3474 27.8227 22.9507C27.718 23.5569 27.5223 24.1439 27.2423 24.6918C26.9599 25.2401 26.5925 25.7404 26.1538 26.1741C25.7135 26.6092 25.2076 26.9725 24.6546 27.2508C24.0993 27.5279 23.5061 27.7212 22.8941 27.8244C22.2833 27.933 21.6597 27.9686 21.042 27.9856L19.1805 28L7.38222 27.9932C7.24107 27.9917 7.09994 27.9888 6.95885 27.9847C6.34119 27.9695 5.71759 27.933 5.10672 27.8244C4.49507 27.7211 3.90209 27.5278 3.34707 27.2508C2.23609 26.6916 1.32991 25.7961 0.757651 24.6918C0.478074 24.1438 0.282446 23.5568 0.177322 22.9507C0.0670259 22.3474 0.0313917 21.7305 0.0152715 21.1205C0.00678717 20.8405 0.00424239 20.5596 0.00254552 20.2796L0 19.7782V8.71818C0 8.38558 2.20061e-07 8.05212 0.00254552 7.71951C0.00424239 7.43952 0.0076356 7.15952 0.0152715 6.87867C0.0322402 6.26776 0.0678744 5.65176 0.177322 5.04764C0.282384 4.44146 0.478015 3.85453 0.757651 3.30655C1.32907 2.20189 2.23511 1.30619 3.34622 0.747516C3.90153 0.470466 4.49479 0.277177 5.10672 0.173939C5.71759 0.0653333 6.34119 0.0296965 6.95885 0.0127268Z" fill="white"/>
</mask>
<g mask="url(#mask0_2307_18599)">
<path d="M0 -0.00195312H28.0002V27.9982H0V-0.00195312Z" fill="#19AA1E"/>
<path fill-rule="evenodd" clip-rule="evenodd" d="M0 -0.00195312H28.0002V9.18467L0 4.81025V-0.00195312Z" fill="#FFB919"/>
<path fill-rule="evenodd" clip-rule="evenodd" d="M0 24.935L28.0002 20.5605V27.9977H0V24.935Z" fill="#82D714"/>
<path fill-rule="evenodd" clip-rule="evenodd" d="M0 4.25732L9.77372 5.78447C10.9903 5.01411 12.4377 4.5916 13.9997 4.5916C16.1631 4.5916 18.1077 5.40183 19.5228 6.82377C19.701 7.00364 19.869 7.19114 20.0276 7.38627L28.0002 8.63174V9.73892L20.837 8.61902C21.3731 9.64392 21.654 10.7831 21.6558 11.9397C21.6558 13.4397 21.3206 14.9355 20.6266 16.4372L20.6063 16.483L20.311 17.1142H19.6153C18.1764 17.1142 17.2228 17.5443 16.5984 18.3071C16.1088 18.9052 15.8255 19.7129 15.7304 20.5935L15.727 20.6207L15.7135 20.7615L15.7075 20.8226L15.6956 20.9422C15.6592 21.3359 15.6354 21.6693 15.6227 21.9408L28.0002 20.0064V21.1136L0 25.4889V24.3817L12.3911 22.4456L12.386 22.197L12.3843 22.1275L12.3826 22.091L12.3809 22.0358C12.3699 21.7346 12.3419 21.3486 12.2978 20.8803L12.2893 20.7912L12.274 20.6376C12.1858 19.7519 11.9066 18.9349 11.4171 18.3274C10.8003 17.5596 9.85602 17.1227 8.42814 17.1142H7.68832L7.39392 16.483C6.68635 14.966 6.34359 13.455 6.34359 11.9397C6.34359 10.0342 7.11649 8.19142 8.47735 6.82377L8.59613 6.70754L0 5.36366V4.25732Z" fill="white"/>
<path fill-rule="evenodd" clip-rule="evenodd" d="M13.9997 5.68506C17.9092 5.68506 20.5622 8.69353 20.5622 11.9396C20.5622 13.2427 20.278 14.5985 19.6145 16.0204C15.7687 16.0204 14.8193 18.7744 14.6394 20.5085L14.6276 20.6231C14.5673 21.2424 14.5317 21.7387 14.5224 22.112L13.4805 22.2749V22.241C13.466 21.6896 13.4286 21.1391 13.3685 20.5908L13.366 20.5603C13.1997 18.8304 12.2707 16.0204 8.38578 16.0204C7.72147 14.5985 7.43726 13.2427 7.43726 11.9396C7.43726 8.69353 10.0911 5.68506 13.9997 5.68506Z" fill="#0073FA"/>
</g>
</svg>
