<svg width="28" height="28" viewBox="0 0 28 28" fill="none" xmlns="http://www.w3.org/2000/svg">
<path d="M2.38 14.0002C2.38 7.55666 7.602 2.3335 14.0467 2.3335C20.489 2.3335 25.7133 7.55666 25.7133 14.0002C25.7133 20.4437 20.489 25.6668 14.0467 25.6668C7.602 25.6668 2.38 20.4437 2.38 14.0002Z" fill="#FC3F1D"/>
<path d="M15.54 8.94349H14.462C12.4857 8.94349 11.4462 9.94449 11.4462 11.4203C11.4462 13.0887 12.1648 13.8703 13.6407 14.8725L14.8598 15.6938L11.3563 20.9287H8.73834L11.8825 16.2457C10.0742 14.9495 9.05918 13.6907 9.05918 11.5615C9.05918 8.89216 10.92 7.06982 14.4492 7.06982H17.9527V20.9158H15.54V8.94349Z" fill="white"/>
</svg>
