<svg width="26" height="26" viewBox="0 0 26 26" fill="none" xmlns="http://www.w3.org/2000/svg">
<path d="M24.1942 0.700584C23.7325 0.546335 23.3026 0.657883 23.0889 0.719962C22.856 0.787616 22.5784 0.895993 22.2999 1.00473L2.51665 8.72503C2.20535 8.84647 1.90383 8.96409 1.6711 9.07916C1.47002 9.17859 1.04263 9.39988 0.804058 9.85909C0.540972 10.3655 0.541326 10.9684 0.805008 11.4745C1.04412 11.9334 1.47177 12.1542 1.67297 12.2534C1.90582 12.3682 2.20743 12.4854 2.51886 12.6065L8.02556 14.748C8.43636 14.9077 8.64177 14.9876 8.84611 14.9925C9.02673 14.9969 9.20589 14.9592 9.36947 14.8825C9.55454 14.7957 9.71038 14.6399 10.0221 14.3282L15.675 8.6752C16.1306 8.21959 16.8693 8.21959 17.3249 8.6752C17.7805 9.13082 17.7805 9.86951 17.3249 10.3251L11.672 15.9781C11.3603 16.2898 11.2045 16.4456 11.1177 16.6307C11.041 16.7943 11.0033 16.9734 11.0076 17.154C11.0125 17.3584 11.0924 17.5638 11.2522 17.9746L13.3936 23.4812C13.5147 23.7926 13.6319 24.0943 13.7468 24.3272C13.8459 24.5284 14.0667 24.956 14.5257 25.1951C15.0318 25.4588 15.6346 25.4592 16.141 25.1961C16.6003 24.9575 16.8216 24.5301 16.921 24.329C17.0361 24.0963 17.1537 23.7948 17.2751 23.4835L24.9954 3.70021C25.1041 3.42172 25.2125 3.14414 25.2802 2.91124C25.3423 2.69752 25.4538 2.26765 25.2996 1.80592C25.1253 1.28425 24.7159 0.874858 24.1942 0.700584Z" fill="#101828"/>
</svg>
