<svg width="26" height="22" viewBox="0 0 26 22" fill="none" xmlns="http://www.w3.org/2000/svg">
<path fill-rule="evenodd" clip-rule="evenodd" d="M11.6449 0.500001H5.02166C4.40667 0.499981 3.87609 0.499964 3.4391 0.535667C2.97786 0.573352 2.51911 0.656554 2.07766 0.88148C1.4191 1.21704 0.883663 1.75247 0.548106 2.41104C0.32318 2.85248 0.239978 3.31123 0.202293 3.77247C0.16659 4.20946 0.166607 4.74 0.166627 5.35498V14.5C0.166627 16.0641 1.19256 17.3885 2.60818 17.8371C3.06737 19.932 4.93389 21.5 7.16663 21.5C9.34111 21.5 11.1682 20.0128 11.6863 18H15.3104L15.3333 18.0002H15.958C16.2412 19.979 17.9429 21.5 20 21.5C22.0815 21.5 23.7992 19.9425 24.0514 17.9294C24.1618 17.9049 24.2765 17.8708 24.3929 17.8226C24.9646 17.5858 25.4189 17.1315 25.6557 16.5598C25.7688 16.2868 25.8043 16.0234 25.8195 15.8013C25.8333 15.5982 25.8333 15.3595 25.8333 15.1144L25.8333 11.7734L25.8334 11.7139C25.834 11.4923 25.8347 11.2133 25.7688 10.9388C25.7117 10.7007 25.6174 10.4731 25.4895 10.2643C25.3419 10.0236 25.1441 9.82681 24.987 9.67056L24.9448 9.62853L20.205 4.88867L20.163 4.84649C20.0067 4.6894 19.81 4.49159 19.5692 4.34406C19.3604 4.21613 19.1328 4.12185 18.8947 4.06469C18.6202 3.99878 18.3412 3.99952 18.1196 4.00012L18.0601 4.00022H16.4794C16.4753 3.9217 16.4703 3.84577 16.4643 3.77247C16.4266 3.31123 16.3434 2.85248 16.1185 2.41104C15.7829 1.75247 15.2475 1.21704 14.5889 0.88148C14.1475 0.656554 13.6887 0.573352 13.2275 0.535667C12.7905 0.499964 12.2599 0.499981 11.6449 0.500001ZM23.4996 15.3117C23.4999 15.246 23.5 15.1708 23.5 15.0836V11.7734C23.5 11.6206 23.4997 11.5443 23.4971 11.4889L23.4969 11.4847L23.4941 11.4816C23.4567 11.4407 23.403 11.3865 23.2949 11.2784L18.5551 6.53858C18.447 6.43051 18.3929 6.37677 18.3519 6.33939L18.3488 6.33657L18.3446 6.33637C18.2892 6.33384 18.2129 6.33356 18.0601 6.33356H16.5V15.3122C17.2145 14.1264 18.5146 13.3333 20 13.3333C21.4851 13.3333 22.785 14.1262 23.4996 15.3117ZM7.16663 14.5C5.87796 14.5 4.83329 15.5447 4.83329 16.8333C4.83329 18.122 5.87796 19.1667 7.16663 19.1667C8.45529 19.1667 9.49996 18.122 9.49996 16.8333C9.49996 15.5447 8.45529 14.5 7.16663 14.5ZM18.25 17.4167C18.25 16.4502 19.0335 15.6667 20 15.6667C20.9665 15.6667 21.75 16.4502 21.75 17.4167C21.75 18.3832 20.9665 19.1667 20 19.1667C19.0335 19.1667 18.25 18.3832 18.25 17.4167Z" fill="#101828"/>
</svg>
