<svg width="24" height="24" viewBox="0 0 24 24" fill="none" xmlns="http://www.w3.org/2000/svg">
<path d="M9.66671 5.00016C9.66671 4.35583 10.189 3.8335 10.8334 3.8335C14.6994 3.8335 17.8334 6.9675 17.8334 10.8335C17.8334 11.4778 17.311 12.0002 16.6667 12.0002C16.0224 12.0002 15.5 11.4778 15.5 10.8335C15.5 8.25617 13.4107 6.16683 10.8334 6.16683C10.189 6.16683 9.66671 5.64449 9.66671 5.00016Z" fill="#101828"/>
<path fill-rule="evenodd" clip-rule="evenodd" d="M0.333374 10.8335C0.333374 5.03451 5.03438 0.333496 10.8334 0.333496C16.6324 0.333496 21.3334 5.03451 21.3334 10.8335C21.3334 13.3127 20.4742 15.5912 19.0373 17.3875L23.325 21.6752C23.7806 22.1308 23.7806 22.8695 23.325 23.3251C22.8694 23.7807 22.1307 23.7807 21.6751 23.3251L17.3873 19.0374C15.5911 20.4743 13.3126 21.3335 10.8334 21.3335C5.03438 21.3335 0.333374 16.6325 0.333374 10.8335ZM10.8334 2.66683C6.32305 2.66683 2.66671 6.32317 2.66671 10.8335C2.66671 15.3438 6.32305 19.0002 10.8334 19.0002C15.3437 19.0002 19 15.3438 19 10.8335C19 6.32317 15.3437 2.66683 10.8334 2.66683Z" fill="#101828"/>
</svg>
