<svg width="25" height="25" viewBox="0 0 25 25" fill="none" xmlns="http://www.w3.org/2000/svg">
<path fill-rule="evenodd" clip-rule="evenodd" d="M8.49998 8.33317C8.49998 3.82285 12.1563 0.166504 16.6666 0.166504C17.6275 0.166504 18.5521 0.332947 19.4114 0.639553C19.7882 0.773967 20.0698 1.09201 20.1576 1.48224C20.2454 1.87248 20.1272 2.2805 19.8443 2.56333L17.2269 5.20858C16.8556 5.58373 16.67 5.7713 16.5826 5.97913C16.4599 6.27062 16.4609 6.59941 16.5852 6.8902C16.6738 7.09752 16.8605 7.28405 17.2338 7.65709C17.6078 8.03083 17.7948 8.21771 18.0026 8.30619C18.2939 8.43029 18.6232 8.43062 18.9148 8.30711C19.1227 8.21905 19.3101 8.03256 19.6849 7.65958L22.3729 4.98449C22.6519 4.7055 23.053 4.58642 23.4391 4.66798C23.8251 4.74954 24.1438 5.02069 24.286 5.38869C24.6399 6.30371 24.8333 7.29723 24.8333 8.33317C24.8333 12.8435 21.177 16.4998 16.6666 16.4998C16 16.4998 15.3505 16.4197 14.7279 16.2681C14.4327 16.1961 14.246 16.1509 14.1096 16.1235C14.0843 16.1184 14.0637 16.1146 14.0471 16.1117C14.0428 16.1155 14.038 16.1198 14.0328 16.1245C13.9603 16.1899 13.8652 16.2846 13.6974 16.4523L6.40827 23.7415C4.98616 25.1636 2.68046 25.1636 1.25835 23.7415C-0.163755 22.3194 -0.163755 20.0137 1.25835 18.5915L8.54747 11.3024C8.71526 11.1346 8.80987 11.0395 8.87534 10.967C8.89357 10.9469 8.88319 10.9243 8.87636 10.8903C8.84893 10.7538 8.80369 10.5671 8.73177 10.2719C8.58009 9.64929 8.49998 8.9998 8.49998 8.33317Z" fill="#101828"/>
</svg>
