<svg width="26" height="26" viewBox="0 0 26 26" fill="none" xmlns="http://www.w3.org/2000/svg">
<path fill-rule="evenodd" clip-rule="evenodd" d="M13 0.166504C5.91231 0.166504 0.166626 5.91218 0.166626 12.9998C0.166626 20.0875 5.91231 25.8332 13 25.8332C20.0876 25.8332 25.8333 20.0875 25.8333 12.9998C25.8333 5.91218 20.0876 0.166504 13 0.166504ZM19.0749 10.3248C19.5305 9.86918 19.5305 9.13049 19.0749 8.67488C18.6193 8.21927 17.8806 8.21927 17.425 8.67488L11.25 14.8499L8.57492 12.1749C8.11931 11.7193 7.38061 11.7193 6.925 12.1749C6.46939 12.6305 6.46939 13.3692 6.925 13.8248L10.425 17.3248C10.8806 17.7804 11.6193 17.7804 12.0749 17.3248L19.0749 10.3248Z" fill="#101828"/>
</svg>
