<svg width="22" height="26" viewBox="0 0 22 26" fill="none" xmlns="http://www.w3.org/2000/svg">
<path d="M11.6075 0.718217C11.4379 0.672508 11.2353 0.629883 11 0.629883C10.7647 0.629883 10.5621 0.672508 10.3925 0.718217C10.0766 0.803406 9.81123 0.972822 9.61963 1.10524C9.4213 1.24231 9.18417 1.42576 8.91648 1.63286L8.89271 1.65125C7.82786 2.475 6.67571 3.04094 5.14179 3.35996L5.10784 3.36702C4.36029 3.52249 3.75286 3.64882 3.28488 3.77251C2.8302 3.89269 2.36162 4.04463 1.98128 4.31317C1.72518 4.49399 1.48641 4.69501 1.27459 4.95542C1.06277 5.21583 0.914577 5.49053 0.789691 5.77808C0.614071 6.18245 0.554037 6.60691 0.526634 7.02555C0.499979 7.43276 0.499989 7.93476 0.5 8.52885V13.0002C0.5 16.2979 2.29351 19.0472 4.23224 21.067C6.18395 23.1002 8.417 24.5364 9.59778 25.2252L9.64559 25.2532C9.86106 25.3798 10.1408 25.544 10.5107 25.6234C10.8134 25.6883 11.1866 25.6883 11.4893 25.6234C11.8592 25.544 12.1389 25.3798 12.3544 25.2532L12.4022 25.2252C13.583 24.5364 15.816 23.1002 17.7678 21.067C19.7065 19.0472 21.5 16.2979 21.5 13.0002V8.52892C21.5 7.93486 21.5 7.43275 21.4734 7.02555C21.446 6.60691 21.3859 6.18245 21.2103 5.77808C21.0854 5.49053 20.9372 5.21583 20.7254 4.95542C20.5136 4.69501 20.2748 4.49399 20.0187 4.31317C19.6384 4.04463 19.1698 3.89269 18.7151 3.77251C18.2471 3.64882 17.6397 3.52249 16.8921 3.36701L16.8582 3.35996C15.3243 3.04094 14.1721 2.475 13.1073 1.65125L13.0835 1.63284C12.8158 1.42575 12.5787 1.2423 12.3804 1.10524C12.1888 0.972821 11.9234 0.803406 11.6075 0.718217Z" fill="#101828"/>
</svg>
