<svg width="153" height="44" viewBox="0 0 153 44" fill="none" xmlns="http://www.w3.org/2000/svg">
<rect width="44" height="44" rx="10" fill="#7ABC26"/>
<path d="M36.0352 22.0236C36.0352 26.7014 33.9204 30.8293 30.229 33.3902C30.229 33.3902 28.1726 34.8888 26.7523 35.5214C26.7523 34.9968 26.7523 31.5787 26.7523 31.5787L28.1726 30.5496C30.8152 28.6352 32.5285 25.5295 32.5285 22.0236C32.5284 16.8111 28.7371 12.4857 23.7619 11.6509L23.7619 20.2703L20.2552 20.2703L20.2552 7.997L22.0086 7.997C29.7552 7.997 36.0351 14.277 36.0352 22.0236Z" fill="#F2F4F7"/>
<path d="M7.96484 21.9764C7.96484 17.2986 10.0796 13.1707 13.771 10.6098C13.771 10.6098 15.8274 9.11122 17.2477 8.47864C17.2477 9.00319 17.2477 12.4213 17.2477 12.4213L15.8274 13.4504C13.1848 15.3648 11.4715 18.4705 11.4715 21.9764C11.4716 27.1889 15.2629 31.5143 20.2381 32.3491L20.2381 23.7297L23.7448 23.7297L23.7448 36.003L21.9914 36.003C14.2448 36.003 7.96491 29.723 7.96484 21.9764Z" fill="#F2F4F7"/>
<path d="M60.4205 18H55.2642V3.45455H60.4631C61.9261 3.45455 63.1856 3.74574 64.2415 4.32812C65.2973 4.90578 66.1094 5.73674 66.6776 6.82102C67.2505 7.9053 67.5369 9.20265 67.5369 10.7131C67.5369 12.2282 67.2505 13.5303 66.6776 14.6193C66.1094 15.7083 65.2926 16.544 64.2273 17.1264C63.1667 17.7088 61.8977 18 60.4205 18ZM58.3395 15.3651H60.2926C61.2017 15.3651 61.9664 15.2041 62.5866 14.8821C63.2116 14.5554 63.6804 14.0511 63.9929 13.3693C64.3101 12.6828 64.4688 11.7973 64.4688 10.7131C64.4688 9.63826 64.3101 8.75994 63.9929 8.07812C63.6804 7.39631 63.214 6.89441 62.5938 6.57244C61.9735 6.25047 61.2088 6.08949 60.2997 6.08949H58.3395V15.3651ZM83.1815 10.7273C83.1815 12.3134 82.8808 13.6629 82.2795 14.7756C81.6829 15.8883 80.8685 16.7382 79.8363 17.3253C78.8088 17.9077 77.6535 18.1989 76.3704 18.1989C75.0778 18.1989 73.9177 17.9053 72.8903 17.3182C71.8628 16.7311 71.0508 15.8812 70.4542 14.7685C69.8576 13.6558 69.5593 12.3087 69.5593 10.7273C69.5593 9.1411 69.8576 7.79167 70.4542 6.67898C71.0508 5.56629 71.8628 4.71875 72.8903 4.13636C73.9177 3.54924 75.0778 3.25568 76.3704 3.25568C77.6535 3.25568 78.8088 3.54924 79.8363 4.13636C80.8685 4.71875 81.6829 5.56629 82.2795 6.67898C82.8808 7.79167 83.1815 9.1411 83.1815 10.7273ZM80.0636 10.7273C80.0636 9.69981 79.9097 8.83333 79.6019 8.12784C79.2989 7.42235 78.8704 6.88731 78.3164 6.52273C77.7624 6.15814 77.1138 5.97585 76.3704 5.97585C75.627 5.97585 74.9783 6.15814 74.4244 6.52273C73.8704 6.88731 73.4395 7.42235 73.1317 8.12784C72.8287 8.83333 72.6772 9.69981 72.6772 10.7273C72.6772 11.7547 72.8287 12.6212 73.1317 13.3267C73.4395 14.0322 73.8704 14.5672 74.4244 14.9318C74.9783 15.2964 75.627 15.4787 76.3704 15.4787C77.1138 15.4787 77.7624 15.2964 78.3164 14.9318C78.8704 14.5672 79.2989 14.0322 79.6019 13.3267C79.9097 12.6212 80.0636 11.7547 80.0636 10.7273ZM98.2933 8.54688H95.1825C95.1257 8.14441 95.0097 7.78693 94.8345 7.47443C94.6593 7.1572 94.4344 6.88731 94.1598 6.66477C93.8852 6.44223 93.5679 6.27178 93.2081 6.15341C92.853 6.03504 92.4671 5.97585 92.0504 5.97585C91.2976 5.97585 90.6418 6.16288 90.0831 6.53693C89.5244 6.90625 89.0911 7.44602 88.7834 8.15625C88.4756 8.86174 88.3217 9.71875 88.3217 10.7273C88.3217 11.7642 88.4756 12.6354 88.7834 13.3409C89.0959 14.0464 89.5315 14.5791 90.0902 14.9389C90.6489 15.2988 91.2952 15.4787 92.0291 15.4787C92.4411 15.4787 92.8222 15.4242 93.1726 15.3153C93.5277 15.2064 93.8426 15.0478 94.1172 14.8395C94.3918 14.6264 94.6191 14.3684 94.799 14.0653C94.9837 13.7623 95.1115 13.4167 95.1825 13.0284L98.2933 13.0426C98.2128 13.7102 98.0116 14.3542 97.6896 14.9744C97.3724 15.59 96.9439 16.1416 96.4041 16.6293C95.8691 17.1122 95.2299 17.4957 94.4865 17.7798C93.7479 18.0592 92.9122 18.1989 91.9794 18.1989C90.6821 18.1989 89.522 17.9053 88.4993 17.3182C87.4813 16.7311 86.6764 15.8812 86.0845 14.7685C85.4974 13.6558 85.2038 12.3087 85.2038 10.7273C85.2038 9.1411 85.5021 7.79167 86.0987 6.67898C86.6953 5.56629 87.505 4.71875 88.5277 4.13636C89.5504 3.54924 90.701 3.25568 91.9794 3.25568C92.8222 3.25568 93.6035 3.37405 94.3232 3.6108C95.0476 3.84754 95.6892 4.19318 96.2479 4.64773C96.8066 5.09754 97.2611 5.64915 97.6115 6.30256C97.9666 6.95597 98.1939 7.70407 98.2933 8.54688ZM99.9446 5.99006V3.45455H111.891V5.99006H107.438V18H104.398V5.99006H99.9446ZM126.56 10.7273C126.56 12.3134 126.26 13.6629 125.658 14.7756C125.062 15.8883 124.247 16.7382 123.215 17.3253C122.188 17.9077 121.032 18.1989 119.749 18.1989C118.457 18.1989 117.297 17.9053 116.269 17.3182C115.242 16.7311 114.43 15.8812 113.833 14.7685C113.237 13.6558 112.938 12.3087 112.938 10.7273C112.938 9.1411 113.237 7.79167 113.833 6.67898C114.43 5.56629 115.242 4.71875 116.269 4.13636C117.297 3.54924 118.457 3.25568 119.749 3.25568C121.032 3.25568 122.188 3.54924 123.215 4.13636C124.247 4.71875 125.062 5.56629 125.658 6.67898C126.26 7.79167 126.56 9.1411 126.56 10.7273ZM123.442 10.7273C123.442 9.69981 123.289 8.83333 122.981 8.12784C122.678 7.42235 122.249 6.88731 121.695 6.52273C121.141 6.15814 120.493 5.97585 119.749 5.97585C119.006 5.97585 118.357 6.15814 117.803 6.52273C117.249 6.88731 116.818 7.42235 116.511 8.12784C116.208 8.83333 116.056 9.69981 116.056 10.7273C116.056 11.7547 116.208 12.6212 116.511 13.3267C116.818 14.0322 117.249 14.5672 117.803 14.9318C118.357 15.2964 119.006 15.4787 119.749 15.4787C120.493 15.4787 121.141 15.2964 121.695 14.9318C122.249 14.5672 122.678 14.0322 122.981 13.3267C123.289 12.6212 123.442 11.7547 123.442 10.7273ZM128.838 18V3.45455H134.577C135.676 3.45455 136.613 3.65104 137.39 4.04403C138.171 4.43229 138.765 4.9839 139.172 5.69886C139.584 6.40909 139.79 7.24479 139.79 8.20597C139.79 9.17187 139.582 10.0028 139.165 10.6989C138.748 11.3902 138.145 11.9205 137.354 12.2898C136.568 12.6591 135.616 12.8438 134.499 12.8438H130.657V10.3722H134.002C134.589 10.3722 135.077 10.2917 135.465 10.1307C135.853 9.9697 136.142 9.72822 136.331 9.40625C136.525 9.08428 136.623 8.68419 136.623 8.20597C136.623 7.72301 136.525 7.31581 136.331 6.98438C136.142 6.65294 135.851 6.40199 135.458 6.23153C135.069 6.05634 134.579 5.96875 133.988 5.96875H131.914V18H128.838ZM136.694 11.3807L140.309 18H136.914L133.377 11.3807H136.694ZM64.9091 30.1562C64.8097 29.8106 64.67 29.5052 64.4901 29.2401C64.3101 28.9702 64.09 28.7429 63.8295 28.5582C63.5739 28.3688 63.2803 28.2244 62.9489 28.125C62.6222 28.0256 62.2599 27.9759 61.8622 27.9759C61.1188 27.9759 60.4654 28.1605 59.902 28.5298C59.3433 28.8991 58.9077 29.4366 58.5952 30.142C58.2827 30.8428 58.1264 31.6998 58.1264 32.7131C58.1264 33.7263 58.2803 34.5881 58.5881 35.2983C58.8958 36.0085 59.3314 36.5507 59.8949 36.9247C60.4583 37.294 61.1236 37.4787 61.8906 37.4787C62.5866 37.4787 63.1809 37.3556 63.6733 37.1094C64.1705 36.8584 64.5492 36.5057 64.8097 36.0511C65.0748 35.5966 65.2074 35.0592 65.2074 34.4389L65.8324 34.5312H62.0824V32.2159H68.169V34.0483C68.169 35.3267 67.8991 36.4252 67.3594 37.3438C66.8196 38.2576 66.0762 38.9631 65.1293 39.4602C64.1823 39.9527 63.098 40.1989 61.8764 40.1989C60.5128 40.1989 59.3149 39.8982 58.2827 39.2969C57.2505 38.6908 56.4455 37.8314 55.8679 36.7188C55.295 35.6013 55.0085 34.2756 55.0085 32.7415C55.0085 31.5625 55.179 30.5114 55.5199 29.5881C55.8655 28.66 56.3485 27.8741 56.9688 27.2301C57.589 26.5862 58.3111 26.0961 59.1349 25.7599C59.9588 25.4238 60.8513 25.2557 61.8125 25.2557C62.6364 25.2557 63.4034 25.3764 64.1136 25.6179C64.8239 25.8546 65.4536 26.1908 66.0028 26.6264C66.5568 27.062 67.009 27.5805 67.3594 28.1818C67.7098 28.7784 67.9347 29.4366 68.0341 30.1562H64.9091ZM72.5369 40H69.2415L74.2628 25.4545H78.2259L83.2401 40H79.9446L76.3011 28.7784H76.1875L72.5369 40ZM72.331 34.2827H80.1151V36.6832H72.331V34.2827ZM90.147 40H84.9908V25.4545H90.1896C91.6527 25.4545 92.9122 25.7457 93.968 26.3281C95.0239 26.9058 95.8359 27.7367 96.4041 28.821C96.977 29.9053 97.2635 31.2027 97.2635 32.7131C97.2635 34.2282 96.977 35.5303 96.4041 36.6193C95.8359 37.7083 95.0192 38.544 93.9538 39.1264C92.8932 39.7088 91.6243 40 90.147 40ZM88.0661 37.3651H90.0192C90.9283 37.3651 91.6929 37.2041 92.3132 36.8821C92.9382 36.5554 93.407 36.0511 93.7195 35.3693C94.0367 34.6828 94.1953 33.7973 94.1953 32.7131C94.1953 31.6383 94.0367 30.7599 93.7195 30.0781C93.407 29.3963 92.9406 28.8944 92.3203 28.5724C91.7 28.2505 90.9354 28.0895 90.0263 28.0895H88.0661V37.3651ZM109.186 30.1562C109.087 29.8106 108.947 29.5052 108.767 29.2401C108.587 28.9702 108.367 28.7429 108.107 28.5582C107.851 28.3688 107.558 28.2244 107.226 28.125C106.9 28.0256 106.537 27.9759 106.14 27.9759C105.396 27.9759 104.743 28.1605 104.179 28.5298C103.621 28.8991 103.185 29.4366 102.873 30.142C102.56 30.8428 102.404 31.6998 102.404 32.7131C102.404 33.7263 102.558 34.5881 102.865 35.2983C103.173 36.0085 103.609 36.5507 104.172 36.9247C104.736 37.294 105.401 37.4787 106.168 37.4787C106.864 37.4787 107.458 37.3556 107.951 37.1094C108.448 36.8584 108.827 36.5057 109.087 36.0511C109.352 35.5966 109.485 35.0592 109.485 34.4389L110.11 34.5312H106.36V32.2159H112.446V34.0483C112.446 35.3267 112.176 36.4252 111.637 37.3438C111.097 38.2576 110.354 38.9631 109.407 39.4602C108.46 39.9527 107.375 40.1989 106.154 40.1989C104.79 40.1989 103.592 39.8982 102.56 39.2969C101.528 38.6908 100.723 37.8314 100.145 36.7188C99.5723 35.6013 99.2859 34.2756 99.2859 32.7415C99.2859 31.5625 99.4563 30.5114 99.7972 29.5881C100.143 28.66 100.626 27.8741 101.246 27.2301C101.866 26.5862 102.588 26.0961 103.412 25.7599C104.236 25.4238 105.129 25.2557 106.09 25.2557C106.914 25.2557 107.681 25.3764 108.391 25.6179C109.101 25.8546 109.731 26.1908 110.28 26.6264C110.834 27.062 111.286 27.5805 111.637 28.1818C111.987 28.7784 112.212 29.4366 112.311 30.1562H109.186ZM114.756 40V25.4545H124.558V27.9901H117.832V31.456H124.053V33.9915H117.832V37.4645H124.586V40H114.756ZM126.449 27.9901V25.4545H138.395V27.9901H133.941V40H130.902V27.9901H126.449ZM148.252 29.6378C148.196 29.0649 147.952 28.6198 147.521 28.3026C147.09 27.9853 146.505 27.8267 145.767 27.8267C145.265 27.8267 144.841 27.8977 144.495 28.0398C144.15 28.1771 143.885 28.3688 143.7 28.6151C143.52 28.8613 143.43 29.1406 143.43 29.4531C143.421 29.7135 143.475 29.9408 143.593 30.1349C143.717 30.3291 143.885 30.4972 144.098 30.6392C144.311 30.7765 144.557 30.8973 144.836 31.0014C145.116 31.1009 145.414 31.1861 145.731 31.2571L147.038 31.5696C147.672 31.7116 148.255 31.901 148.785 32.1378C149.315 32.3745 149.775 32.6657 150.163 33.0114C150.551 33.357 150.852 33.7642 151.065 34.233C151.283 34.7017 151.394 35.2391 151.399 35.8452C151.394 36.7353 151.167 37.5071 150.717 38.1605C150.272 38.8092 149.628 39.3134 148.785 39.6733C147.947 40.0284 146.936 40.206 145.752 40.206C144.578 40.206 143.556 40.026 142.684 39.6662C141.818 39.3063 141.141 38.7737 140.653 38.0682C140.17 37.358 139.917 36.4796 139.893 35.4332H142.869C142.902 35.9209 143.042 36.3281 143.288 36.6548C143.539 36.9768 143.873 37.2206 144.289 37.3864C144.711 37.5473 145.187 37.6278 145.717 37.6278C146.238 37.6278 146.69 37.5521 147.074 37.4006C147.462 37.2491 147.762 37.0384 147.975 36.7685C148.189 36.4986 148.295 36.1884 148.295 35.8381C148.295 35.5114 148.198 35.2367 148.004 35.0142C147.815 34.7917 147.535 34.6023 147.166 34.446C146.801 34.2898 146.354 34.1477 145.824 34.0199L144.24 33.6222C143.013 33.3239 142.045 32.8575 141.335 32.223C140.625 31.5885 140.272 30.7339 140.277 29.6591C140.272 28.7784 140.506 28.009 140.98 27.3509C141.458 26.6927 142.114 26.179 142.947 25.8097C143.78 25.4403 144.727 25.2557 145.788 25.2557C146.868 25.2557 147.81 25.4403 148.615 25.8097C149.424 26.179 150.054 26.6927 150.504 27.3509C150.954 28.009 151.186 28.7713 151.2 29.6378H148.252Z" fill="#101828"/>
</svg>
